<?xml version="1.0" encoding="UTF-8"?>
<svg id="_레이어_1" data-name="레이어 1" xmlns="http://www.w3.org/2000/svg" version="1.1" xmlns:xlink="http://www.w3.org/1999/xlink" viewBox="0 0 260 400">
  <defs>
    <style>
      .cls-1 {
        fill: #000;
      }

      .cls-1, .cls-2, .cls-3, .cls-4 {
        stroke-width: 0px;
      }

      .cls-2 {
        fill: url(#_무제_그라디언트_3);
      }

      .cls-2, .cls-5, .cls-6 {
        isolation: isolate;
      }

      .cls-2, .cls-7, .cls-6 {
        mix-blend-mode: screen;
      }

      .cls-2, .cls-6 {
        opacity: .5;
      }

      .cls-3 {
        fill: url(#_무제_그라디언트_2);
      }

      .cls-4 {
        fill: url(#_무제_그라디언트);
      }
    </style>
    <linearGradient id="_무제_그라디언트" data-name="무제 그라디언트" x1="124.7" y1="194" x2="135.9" y2="194" gradientTransform="translate(0 401.3) scale(1 -1)" gradientUnits="userSpaceOnUse">
      <stop offset="0" stop-color="#4e4e4e"/>
      <stop offset="0" stop-color="#807e7c"/>
      <stop offset=".1" stop-color="#b1aeaa"/>
      <stop offset=".2" stop-color="#d5d1cc"/>
      <stop offset=".2" stop-color="#ebe7e0"/>
      <stop offset=".2" stop-color="#f3efe8"/>
      <stop offset=".3" stop-color="#c1bfba"/>
      <stop offset=".4" stop-color="#939290"/>
      <stop offset=".5" stop-color="#767675"/>
      <stop offset=".5" stop-color="#6c6c6c"/>
      <stop offset=".7" stop-color="#4e4e4e"/>
      <stop offset=".7" stop-color="#545454"/>
      <stop offset=".7" stop-color="#676665"/>
      <stop offset=".8" stop-color="#858380"/>
      <stop offset=".8" stop-color="#afaba7"/>
      <stop offset=".9" stop-color="#bdb9b4"/>
      <stop offset="1" stop-color="#6c6c6c"/>
    </linearGradient>
    <linearGradient id="_무제_그라디언트_2" data-name="무제 그라디언트 2" x1="124.7" y1="388.1" x2="135.9" y2="388.1" gradientTransform="translate(0 401.3) scale(1 -1)" gradientUnits="userSpaceOnUse">
      <stop offset="0" stop-color="#4e4e4e"/>
      <stop offset="0" stop-color="#807e7c"/>
      <stop offset=".1" stop-color="#b1aeaa"/>
      <stop offset=".2" stop-color="#d5d1cc"/>
      <stop offset=".2" stop-color="#ebe7e0"/>
      <stop offset=".2" stop-color="#f3efe8"/>
      <stop offset=".3" stop-color="#c1bfba"/>
      <stop offset=".4" stop-color="#939290"/>
      <stop offset=".5" stop-color="#767675"/>
      <stop offset=".5" stop-color="#6c6c6c"/>
      <stop offset=".7" stop-color="#4e4e4e"/>
      <stop offset=".7" stop-color="#545454"/>
      <stop offset=".7" stop-color="#676665"/>
      <stop offset=".8" stop-color="#858380"/>
      <stop offset=".8" stop-color="#afaba7"/>
      <stop offset=".9" stop-color="#bdb9b4"/>
      <stop offset="1" stop-color="#6c6c6c"/>
    </linearGradient>
    <linearGradient id="_무제_그라디언트_3" data-name="무제 그라디언트 3" x1="128" y1="391.6" x2="128" y2="394.1" gradientTransform="translate(0 401.3) scale(1 -1)" gradientUnits="userSpaceOnUse">
      <stop offset="0" stop-color="#000"/>
      <stop offset="0" stop-color="#070708"/>
      <stop offset=".3" stop-color="#1a1d1f"/>
      <stop offset=".5" stop-color="#394045"/>
      <stop offset=".7" stop-color="#657179"/>
      <stop offset="1" stop-color="#9dafbb"/>
      <stop offset="1" stop-color="#a4b7c4"/>
    </linearGradient>
  </defs>
  <g class="cls-5">
    <g id="Layer_1" data-name="Layer 1">
      <g>
        <path class="cls-4" d="M135.9,401.3c0,3.8-11.2,3.8-11.2,0V10.3c2.3,2.9,8.7,2.9,11.2,0v391.1h0Z"/>
        <g class="cls-7">
          <image class="cls-5" width="10" height="3" transform="translate(125 11)" xlink:href="tower-1.png"/>
        </g>
        <path class="cls-3" d="M124.7,10.3v4.8c1.3.8,3.6,1.1,5.6,1.1s4.6-.6,5.6-1.1v-4.8c-2.2,2.2-8.5,2.5-11.2,0Z"/>
        <path class="cls-1" d="M135.9,10.3c0,1-2.5,1.8-5.6,1.8s-5.6-.8-5.6-1.8,2.5-1.8,5.6-1.8,5.6.8,5.6,1.8Z"/>
        <path class="cls-1" d="M135.9,9.5c0,1-2.5,1.8-5.6,1.8s-5.6-.8-5.6-1.8,2.5-1.8,5.6-1.8,5.6.8,5.6,1.8Z"/>
        <path class="cls-1" d="M135.9,8.7c0,1-2.5,1.8-5.6,1.8s-5.6-.8-5.6-1.8,2.5-1.8,5.6-1.8,5.6.8,5.6,1.8Z"/>
        <image class="cls-6" width="12" height="3" transform="translate(124 8)" xlink:href="tower-2.png"/>
        <image class="cls-6" width="12" height="3" transform="translate(124 9)" xlink:href="tower-3.png"/>
        <path class="cls-2" d="M130.9,7.2h-.5c-3.2,0-5.1.8-5.3,1.3.1.4,1.2.9,3,1.2.5-1.1,1.5-2,2.8-2.5h0Z"/>
      </g>
    </g>
  </g>
</svg>